<!--?xml version="1.0" standalone="no"?-->

<svg version="1.0" xmlns="http://www.w3.org/2000/svg" width="300.000000pt" height="300.000000pt" viewBox="0 0 300.000000 300.000000" preserveAspectRatio="xMidYMid meet">
<g transform="translate(0.000000,300.000000) scale(0.100000,-0.100000)" fill="#353535" stroke="none">
<path stroke-width="20" class="node" id="node1" d="M1385 2878 c-260 -14 -521 -107 -749 -265 -96 -67 -293 -261 -357
-353 -26 -36 -63 -96 -84 -135 -21 -38 -41 -74 -45 -80 -29 -45 -100 -253
-126 -375 -29 -133 -27 -439 4 -580 30 -137 56 -214 109 -330 91 -198 142
-260 210 -260 68 0 135 82 114 140 -9 29 -8 30 69 74 43 25 86 56 94 68 23 33
20 82 -8 115 -36 42 -83 38 -174 -15 -41 -23 -77 -42 -80 -42 -4 0 -23 42 -44
93 -38 96 -78 262 -78 322 l0 35 94 0 c86 0 97 2 124 25 38 32 47 67 27 104
-26 52 -50 61 -152 61 l-93 0 0 39 c0 93 97 411 125 411 5 0 24 -9 40 -21 54
-36 124 -69 149 -69 13 0 38 12 55 26 24 20 31 34 31 61 0 52 -13 68 -100 120
-44 26 -80 52 -80 57 0 32 228 269 297 308 l31 18 45 -78 c52 -90 63 -101 111
-109 30 -5 40 -1 66 25 45 45 41 86 -15 180 -25 41 -43 77 -41 79 2 3 37 18
77 34 90 37 247 76 319 81 l55 3 3 -95 c3 -110 12 -135 59 -151 42 -13 76 -6
103 23 17 19 20 35 20 125 l0 104 53 -7 c119 -14 339 -77 395 -112 9 -7 1 -27
-33 -84 -53 -88 -58 -132 -21 -175 19 -22 32 -28 66 -28 36 0 47 6 70 33 15
18 40 60 56 92 16 32 32 59 36 59 16 2 131 -95 204 -171 125 -131 223 -289
279 -451 30 -88 65 -245 65 -291 l0 -34 -99 -4 c-82 -2 -103 -6 -121 -23 -36
-33 -43 -64 -25 -106 22 -49 49 -59 155 -59 l90 0 0 -36 c0 -45 -43 -234 -69
-299 -40 -102 -46 -115 -54 -115 -5 0 -41 19 -80 42 -88 53 -137 57 -173 15
-28 -33 -32 -82 -9 -115 9 -12 37 -34 63 -48 117 -67 112 -62 101 -93 -21 -61
45 -141 116 -141 66 0 111 55 200 245 58 123 82 193 116 340 21 88 24 124 23
305 0 177 -3 218 -22 300 -36 153 -91 304 -142 391 -17 27 -30 52 -30 55 0 2
-12 23 -27 47 -107 165 -281 345 -430 444 -112 74 -271 153 -378 186 -179 57
-363 77 -580 65z"></path>
<path class="node" id="node2" d="M2354 1912 c-45 -20 -95 -42 -110 -49 -165 -69 -256 -108 -289 -123
-22 -10 -69 -30 -105 -45 -36 -15 -78 -33 -95 -40 -162 -72 -173 -75 -214 -66
-88 19 -184 -26 -227 -109 -93 -176 103 -374 280 -283 49 25 94 80 112 136 7
21 102 98 384 310 205 155 376 288 378 295 6 20 -29 12 -114 -26z"></path>
<path class="node" id="node3" d="M985 562 c-57 -35 -60 -44 -63 -198 -4 -157 5 -196 56 -231 25 -17
61 -18 522 -18 552 0 530 -3 564 68 12 27 16 65 16 169 0 148 -7 170 -59 205
l-34 23 -486 0 c-454 0 -488 -1 -516 -18z"></path>
</g>
<g transform="translate(0.000000,300.000000) scale(0.100000,-0.100000)" fill="#FFFFFF" stroke="none">


</g>
</svg>