<?xml version="1.0" ?><!DOCTYPE svg  PUBLIC '-//W3C//DTD SVG 1.1//EN'  'http://www.w3.org/Graphics/SVG/1.1/DTD/svg11.dtd'><svg width="846.66px" height="846.66px" viewBox="0 0 846.66 846.66" style="shape-rendering:geometricPrecision; text-rendering:geometricPrecision; image-rendering:optimizeQuality; fill-rule:evenodd; clip-rule:evenodd" version="1.1" xml:space="preserve" xmlns="http://www.w3.org/2000/svg" xmlns:xlink="http://www.w3.org/1999/xlink"><defs><style type="text/css">
   <![CDATA[
    .fil0 {fill:black;fill-rule:nonzero}
   ]]>
  </style></defs><g id="Layer_x0020_1"><path class="fil0" d="M529.12 88.28c-78.14,74.28 -156.27,148.56 -234.4,222.85l221.68 -1.03 117.45 -111.66c-34.91,-36.72 -69.82,-73.44 -104.73,-110.16zm169.44 410.85l0 118.46 96.19 0 0 -118.46 -96.19 0zm-41.26 118.46l0 -118.46 -50.35 0 0 118.46 50.35 0zm-52.42 -159.73l73.05 0 36.03 0 0 -105.46c-181.34,0 -363.04,0 -544,0 -27.14,0 -27.14,-41.27 0,-41.27l65.01 0 123.31 -117.23 -242.8 0c-34.92,0 -63.57,28.65 -63.57,63.57l0 445.76c0,34.92 28.65,63.56 63.57,63.56l534.91 0c34.92,0 63.57,-28.64 63.57,-63.56l0 -44.37 -109.08 0c-21.57,0 -39.2,-17.67 -39.2,-39.2l0 -122.6c0,-21.56 17.66,-39.2 39.2,-39.2zm150.34 0l41.59 0c21.61,0 39.21,17.6 39.21,39.2l0 122.6c0,21.6 -17.6,39.2 -39.21,39.2l-41.59 0 0 44.37c0,57.7 -47.13,104.83 -104.83,104.83l-534.91 0c-57.7,0 -104.83,-47.13 -104.83,-104.83l0 -445.76c0,-57.7 47.13,-104.83 104.83,-104.83l286.2 0 113.99 -108.37c8.23,-7.84 21.26,-7.51 29.1,0.72l102.34 107.65 3.28 0c57.7,0 104.83,47.13 104.83,104.83l0 74.29 0 126.1zm-180.16 -146.73l138.9 0 0 -53.66c0,-22.33 -11.84,-42.87 -30.81,-54.39 -0.78,4.07 -2.79,7.93 -6.01,11l-102.08 97.05z"/></g></svg>